<svg width="100" height="100" viewBox="0 0 100 100" fill="none" xmlns="http://www.w3.org/2000/svg">
<path d="M49.9941 0L50.6406 0.00390625C77.9535 0.350003 99.9881 22.5945 99.9883 49.9844C99.9883 77.5902 77.6051 99.9697 49.9941 99.9697C22.3832 99.9697 0 77.5902 0 49.9844V0H49.9941Z" fill="#007140"/>
<path d="M88.8789 48.8428V81.4072C79.7136 92.734 65.7012 99.9785 49.9941 99.9785C34.2876 99.9785 20.2757 92.7344 11.1104 81.4082V48.8428L49.9941 34.7109L88.8789 48.8428Z" fill="#00E683"/>
<path d="M88.8779 48.8418V81.4082C79.7126 92.7344 65.7006 99.9785 49.9941 99.9785V34.7109L88.8779 48.8418Z" fill="#00AD62"/>
<ellipse cx="22.9145" cy="25.687" rx="11.8042" ry="11.8042" fill="#00E683"/>
<path d="M49.9941 61.1045C56.8968 61.1045 62.4922 66.6997 62.4922 73.6016L62.4922 98.4248C58.4975 99.4528 54.3098 100.001 49.9941 100.001C45.6781 100.001 41.4901 99.4529 37.4951 98.4248L37.4951 73.6016C37.4951 66.6997 43.0914 61.1045 49.9941 61.1045Z" fill="#333333"/>
</svg>
