<svg width="305" height="100" viewBox="0 0 305 100" fill="none" xmlns="http://www.w3.org/2000/svg">
<path d="M49.9941 0L50.6406 0.00390625C77.9535 0.350003 99.9881 22.5945 99.9883 49.9844C99.9883 77.5902 77.6051 99.9697 49.9941 99.9697C22.3832 99.9697 0 77.5902 0 49.9844V0H49.9941Z" fill="#007140"/>
<path d="M88.8789 48.8428V81.4072C79.7136 92.734 65.7012 99.9785 49.9941 99.9785C34.2876 99.9785 20.2757 92.7344 11.1104 81.4082V48.8428L49.9941 34.7109L88.8789 48.8428Z" fill="#00E683"/>
<path d="M88.8779 48.8418V81.4082C79.7126 92.7344 65.7006 99.9785 49.9941 99.9785V34.7109L88.8779 48.8418Z" fill="#00AD62"/>
<ellipse cx="22.9145" cy="25.687" rx="11.8042" ry="11.8042" fill="#00E683"/>
<path d="M49.9941 61.1045C56.8968 61.1045 62.4922 66.6997 62.4922 73.6016L62.4922 98.4248C58.4975 99.4528 54.3098 100.001 49.9941 100.001C45.6781 100.001 41.4901 99.4529 37.4951 98.4248L37.4951 73.6016C37.4951 66.6997 43.0914 61.1045 49.9941 61.1045Z" fill="#333333"/>
<path d="M290.942 87.6112V64.1503H296.171V70.6087L295.555 68.7195C296.258 67.1378 297.357 65.937 298.851 65.1169C300.374 64.2968 302.263 63.8867 304.518 63.8867V69.1149C304.284 69.0563 304.064 69.027 303.859 69.027C303.654 68.9977 303.449 68.9831 303.244 68.9831C301.164 68.9831 299.51 69.5982 298.279 70.8283C297.049 72.0292 296.434 73.8305 296.434 76.2322V87.6112H290.942Z" fill="#007140"/>
<path d="M274.639 87.9187C272.033 87.9187 269.748 87.4062 267.786 86.381C265.852 85.3266 264.344 83.8914 263.26 82.0755C262.206 80.2595 261.679 78.1946 261.679 75.8808C261.679 73.5376 262.191 71.4727 263.216 69.686C264.271 67.8701 265.706 66.4495 267.522 65.4244C269.367 64.3993 271.461 63.8867 273.805 63.8867C276.089 63.8867 278.125 64.3846 279.911 65.3805C281.698 66.3763 283.104 67.7822 284.129 69.5982C285.154 71.4141 285.667 73.5522 285.667 76.0126C285.667 76.2469 285.652 76.5105 285.623 76.8034C285.623 77.0963 285.608 77.3745 285.579 77.6381H266.028V73.9916H282.679L280.526 75.1339C280.556 73.7866 280.278 72.6003 279.692 71.5752C279.106 70.5501 278.3 69.7446 277.275 69.1588C276.28 68.573 275.123 68.2801 273.805 68.2801C272.457 68.2801 271.271 68.573 270.246 69.1588C269.25 69.7446 268.459 70.5647 267.873 71.6191C267.317 72.6443 267.039 73.8598 267.039 75.2657V76.1444C267.039 77.5503 267.361 78.7951 268.005 79.8788C268.65 80.9625 269.558 81.7972 270.729 82.383C271.901 82.9688 273.248 83.2617 274.771 83.2617C276.089 83.2617 277.275 83.0567 278.33 82.6466C279.384 82.2366 280.321 81.5922 281.142 80.7135L284.085 84.0964C283.031 85.3266 281.698 86.2785 280.087 86.9522C278.506 87.5965 276.69 87.9187 274.639 87.9187Z" fill="#007140"/>
<path d="M233.493 87.6112V64.1503H238.721V70.4768L237.799 68.5437C238.619 67.05 239.805 65.9077 241.357 65.1169C242.939 64.2968 244.755 63.8867 246.805 63.8867C248.68 63.8867 250.349 64.2528 251.814 64.9851C253.307 65.7173 254.479 66.845 255.328 68.368C256.178 69.8618 256.603 71.7949 256.603 74.1673V87.6112H251.111V74.8703C251.111 72.7907 250.613 71.2384 249.617 70.2132C248.65 69.1881 247.288 68.6755 245.531 68.6755C244.242 68.6755 243.1 68.9391 242.104 69.4664C241.108 69.9936 240.332 70.7844 239.776 71.8388C239.249 72.8639 238.985 74.1673 238.985 75.7489V87.6112H233.493Z" fill="#007140"/>
<path d="M215.72 87.9187C213.319 87.9187 211.181 87.4062 209.306 86.381C207.432 85.3266 205.952 83.8914 204.869 82.0755C203.785 80.2595 203.243 78.1946 203.243 75.8808C203.243 73.5376 203.785 71.4727 204.869 69.686C205.952 67.8701 207.432 66.4495 209.306 65.4244C211.181 64.3993 213.319 63.8867 215.72 63.8867C218.151 63.8867 220.304 64.3993 222.179 65.4244C224.083 66.4495 225.562 67.8554 226.616 69.6421C227.7 71.4288 228.242 73.5083 228.242 75.8808C228.242 78.1946 227.7 80.2595 226.616 82.0755C225.562 83.8914 224.083 85.3266 222.179 86.381C220.304 87.4062 218.151 87.9187 215.72 87.9187ZM215.72 83.2178C217.068 83.2178 218.269 82.9249 219.323 82.3391C220.378 81.7533 221.198 80.9039 221.783 79.7909C222.398 78.6779 222.706 77.3745 222.706 75.8808C222.706 74.3577 222.398 73.0543 221.783 71.9706C221.198 70.8576 220.378 70.0082 219.323 69.4224C218.269 68.8366 217.082 68.5437 215.764 68.5437C214.417 68.5437 213.216 68.8366 212.162 69.4224C211.137 70.0082 210.317 70.8576 209.701 71.9706C209.086 73.0543 208.779 74.3577 208.779 75.8808C208.779 77.3745 209.086 78.6779 209.701 79.7909C210.317 80.9039 211.137 81.7533 212.162 82.3391C213.216 82.9249 214.402 83.2178 215.72 83.2178Z" fill="#007140"/>
<path d="M170.632 87.6103L162.021 64.1494H167.205L174.586 84.8424H172.125L179.858 64.1494H184.471L191.984 84.8424H189.567L197.168 64.1494H202.045L193.39 87.6103H188.117L181.264 69.2897H182.889L175.904 87.6103H170.632Z" fill="#007140"/>
<path d="M135.8 87.6112V64.1503H141.028V70.4768L140.105 68.5437C140.925 67.05 142.112 65.9077 143.664 65.1169C145.246 64.2968 147.062 63.8867 149.112 63.8867C150.986 63.8867 152.656 64.2528 154.12 64.9851C155.614 65.7173 156.786 66.845 157.635 68.368C158.484 69.8618 158.909 71.7949 158.909 74.1673V87.6112H153.417V74.8703C153.417 72.7907 152.919 71.2384 151.924 70.2132C150.957 69.1881 149.595 68.6755 147.838 68.6755C146.549 68.6755 145.407 68.9391 144.411 69.4664C143.415 69.9936 142.639 70.7844 142.082 71.8388C141.555 72.8639 141.292 74.1673 141.292 75.7489V87.6112H135.8Z" fill="#007140"/>
<path d="M122.297 87.6114V56.8574H128.008V87.6114H122.297Z" fill="#007140"/>
<path d="M192.318 39.133V21.4684H195.385V26.2345L194.885 24.968C195.462 23.8126 196.351 22.9127 197.551 22.2683C198.751 21.6239 200.151 21.3018 201.751 21.3018C203.195 21.3018 204.461 21.5795 205.55 22.135C206.661 22.6905 207.528 23.5348 208.15 24.668C208.772 25.8012 209.083 27.2344 209.083 28.9675V39.133H205.883V29.3341C205.883 27.6232 205.461 26.3345 204.617 25.4679C203.795 24.6014 202.628 24.1681 201.117 24.1681C199.984 24.1681 198.995 24.3903 198.151 24.8347C197.307 25.2791 196.651 25.9345 196.185 26.8011C195.74 27.6677 195.518 28.7453 195.518 30.0341V39.133H192.318Z" fill="#333333"/>
<path d="M179.776 39.333C177.888 39.333 176.221 38.9441 174.777 38.1664C173.355 37.3887 172.244 36.3222 171.444 34.9668C170.666 33.6114 170.277 32.056 170.277 30.3007C170.277 28.5453 170.655 26.99 171.411 25.6346C172.188 24.2792 173.244 23.2238 174.577 22.4683C175.932 21.6906 177.454 21.3018 179.143 21.3018C180.854 21.3018 182.365 21.6795 183.676 22.435C184.987 23.1904 186.009 24.257 186.742 25.6346C187.498 26.99 187.875 28.5787 187.875 30.4007C187.875 30.534 187.864 30.6895 187.842 30.8673C187.842 31.0451 187.831 31.2117 187.809 31.3672H172.777V29.0675H186.142L184.842 29.8674C184.865 28.7342 184.631 27.7232 184.142 26.8344C183.654 25.9457 182.976 25.2568 182.109 24.768C181.265 24.257 180.276 24.0014 179.143 24.0014C178.032 24.0014 177.043 24.257 176.177 24.768C175.31 25.2568 174.632 25.9568 174.144 26.8678C173.655 27.7565 173.41 28.7787 173.41 29.9341V30.4673C173.41 31.645 173.677 32.7004 174.21 33.6336C174.766 34.5446 175.532 35.2557 176.51 35.7667C177.488 36.2778 178.61 36.5333 179.876 36.5333C180.921 36.5333 181.865 36.3555 182.709 36C183.576 35.6445 184.331 35.1112 184.976 34.4002L186.742 36.4666C185.942 37.3999 184.942 38.1109 183.742 38.5997C182.565 39.0885 181.243 39.333 179.776 39.333Z" fill="#333333"/>
<path d="M158.558 39.333C157.091 39.333 155.747 38.9997 154.525 38.3331C153.325 37.6443 152.359 36.6333 151.625 35.3001C150.914 33.9669 150.559 32.3005 150.559 30.3007C150.559 28.3009 150.903 26.6345 151.592 25.3013C152.303 23.9681 153.259 22.9682 154.458 22.3016C155.681 21.6351 157.047 21.3018 158.558 21.3018C160.291 21.3018 161.824 21.6795 163.157 22.435C164.491 23.1904 165.546 24.2459 166.324 25.6012C167.101 26.9344 167.49 28.5009 167.49 30.3007C167.49 32.1005 167.101 33.6781 166.324 35.0335C165.546 36.3889 164.491 37.4443 163.157 38.1998C161.824 38.9552 160.291 39.333 158.558 39.333ZM149.192 45.5989V21.4684H152.259V26.2345L152.059 30.334L152.392 34.4335V45.5989H149.192ZM158.291 36.5333C159.425 36.5333 160.435 36.2778 161.324 35.7667C162.235 35.2557 162.946 34.5335 163.457 33.6003C163.991 32.6449 164.257 31.545 164.257 30.3007C164.257 29.0342 163.991 27.9454 163.457 27.0344C162.946 26.1012 162.235 25.3791 161.324 24.868C160.435 24.357 159.425 24.1014 158.291 24.1014C157.18 24.1014 156.169 24.357 155.258 24.868C154.37 25.3791 153.659 26.1012 153.125 27.0344C152.614 27.9454 152.359 29.0342 152.359 30.3007C152.359 31.545 152.614 32.6449 153.125 33.6003C153.659 34.5335 154.37 35.2557 155.258 35.7667C156.169 36.2778 157.18 36.5333 158.291 36.5333Z" fill="#333333"/>
<path d="M132.199 39.398C130.422 39.398 128.767 39.0981 127.233 38.4981C125.722 37.8982 124.411 37.065 123.3 35.9984C122.19 34.9097 121.323 33.6431 120.701 32.1989C120.079 30.7546 119.768 29.177 119.768 27.4661C119.768 25.7552 120.079 24.1776 120.701 22.7333C121.323 21.2891 122.19 20.0336 123.3 18.9671C124.411 17.8783 125.722 17.034 127.233 16.4341C128.744 15.8341 130.4 15.5342 132.199 15.5342C133.977 15.5342 135.61 15.8341 137.099 16.4341C138.61 17.0118 139.921 17.845 141.032 18.9338C142.165 20.0003 143.031 21.2557 143.631 22.7C144.254 24.1443 144.565 25.733 144.565 27.4661C144.565 29.1992 144.254 30.7879 143.631 32.2322C143.031 33.6765 142.165 34.943 141.032 36.0318C139.921 37.0983 138.61 37.9315 137.099 38.5315C135.61 39.1092 133.977 39.398 132.199 39.398ZM132.199 36.4317C133.488 36.4317 134.677 36.2095 135.766 35.7651C136.877 35.3207 137.832 34.6986 138.632 33.8987C139.454 33.0765 140.087 32.1211 140.532 31.0323C140.998 29.9436 141.232 28.7548 141.232 27.4661C141.232 26.1774 140.998 24.9886 140.532 23.8999C140.087 22.8111 139.454 21.8668 138.632 21.0669C137.832 20.2447 136.877 19.6115 135.766 19.1671C134.677 18.7227 133.488 18.5005 132.199 18.5005C130.888 18.5005 129.678 18.7227 128.567 19.1671C127.478 19.6115 126.522 20.2447 125.7 21.0669C124.878 21.8668 124.234 22.8111 123.767 23.8999C123.323 24.9886 123.101 26.1774 123.101 27.4661C123.101 28.7548 123.323 29.9436 123.767 31.0323C124.234 32.1211 124.878 33.0765 125.7 33.8987C126.522 34.6986 127.478 35.3207 128.567 35.7651C129.678 36.2095 130.888 36.4317 132.199 36.4317Z" fill="#333333"/>
</svg>
